<?xml version="1.0" encoding="UTF-8"?>
<svg xmlns="http://www.w3.org/2000/svg" viewBox="0 0 186.58 130.35">
  <defs>
    <style>
      .cls-1 {
        mix-blend-mode: difference;
      }

      .cls-1, .cls-2, .cls-3 {
        fill: #e2001a;
      }

      .cls-4 {
        fill: none;
        stroke: #a62a6b;
        stroke-miterlimit: 10;
        stroke-width: .75px;
      }

      .cls-2, .cls-5, .cls-6, .cls-7 {
        mix-blend-mode: luminosity;
      }

      .cls-8 {
        isolation: isolate;
      }

      .cls-9 {
        font-family: Futura-Medium, 'Futura Medium';
        font-size: 10.98px;
      }

      .cls-9, .cls-10, .cls-11 {
        fill: #a62a6b;
      }

      .cls-12 {
        mix-blend-mode: color;
      }

      .cls-12, .cls-6, .cls-13 {
        fill: #ffdb00;
      }

      .cls-5, .cls-14 {
        fill: #b8c71d;
      }

      .cls-14, .cls-11 {
        mix-blend-mode: lighten;
      }
    </style>
  </defs>
  <g class="cls-8">
    <g id="Los_cascamels">
      <path class="cls-3" d="M85.96,40.12c.2,.25,.41,.49,.62,.74,.21,.25,.41,.49,.62,.74-.16,.47-.42,.93-.78,1.37-.36,.44-.78,.83-1.26,1.18-.48,.35-1,.63-1.57,.84-.56,.21-1.12,.31-1.68,.31-1.79,0-2.89-.71-3.28-2.12-.08,.15-.17,.29-.26,.42-.08,.13-.19,.25-.3,.37-.09,.09-.22,.21-.39,.36-.17,.16-.38,.31-.64,.46-.26,.15-.56,.28-.91,.39-.35,.11-.75,.16-1.21,.16-.73,0-1.36-.13-1.88-.39-.53-.26-.96-.61-1.29-1.06-.34-.44-.59-.97-.75-1.57-.16-.6-.24-1.25-.24-1.95,0-.17,0-.43,.02-.78,0-.35,.04-.75,.09-1.2,.05-.45,.13-.93,.23-1.45,.1-.52,.23-1.03,.4-1.55,.18-.52,.39-1.01,.64-1.48,.26-.47,.57-.89,.93-1.26,.36-.37,.78-.65,1.27-.87,.48-.21,1.03-.32,1.66-.32,.32,0,.63,.03,.92,.1,.29,.07,.56,.16,.81,.26,.25,.1,.47,.21,.67,.33,.21,.12,.38,.23,.53,.34l.15-1.26,4.98,.23-.85,8.43c-.02,.18-.03,.38-.02,.58,0,.2,.03,.39,.09,.56,.05,.17,.14,.3,.27,.41,.13,.11,.31,.16,.53,.16,.21,0,.42-.05,.63-.14,.21-.1,.4-.22,.58-.36,.18-.15,.33-.31,.45-.48,.12-.18,.21-.35,.27-.51Zm-7.39-4.86c-.04-.09-.12-.19-.23-.32-.11-.13-.28-.19-.52-.19-.29,0-.57,.12-.83,.35-.26,.24-.49,.56-.7,.98-.2,.42-.35,.92-.47,1.52-.12,.59-.18,1.24-.18,1.95,0,.46,.03,.83,.1,1.09,.07,.26,.15,.46,.24,.59,.1,.13,.2,.21,.31,.23,.11,.03,.2,.04,.29,.04,.26,0,.54-.08,.83-.24,.3-.16,.51-.44,.65-.82l.5-5.17Z"/>
      <path class="cls-3" d="M100.66,41.29c-.55,.53-1.15,1.03-1.79,1.51-.65,.48-1.35,.9-2.1,1.26-.76,.37-1.55,.66-2.38,.88-.84,.22-1.72,.33-2.64,.33-1,0-1.86-.14-2.6-.42-.74-.28-1.34-.63-1.82-1.05-.48-.42-.83-.87-1.06-1.35-.23-.48-.34-.93-.34-1.35,0-.66,.1-1.2,.31-1.64,.21-.43,.46-.79,.76-1.05,.34-.58,.64-1.15,.91-1.7,.26-.55,.5-1.1,.69-1.65,.2-.55,.38-1.1,.55-1.65,.17-.55,.32-1.12,.48-1.7l4.59-1.09c.47,.61,.93,1.28,1.36,2,.43,.73,.82,1.47,1.14,2.25,.33,.77,.59,1.55,.79,2.34,.19,.79,.3,1.54,.3,2.26v.39c0,.2,0,.4-.02,.6,.11-.01,.23-.05,.36-.1,.13-.06,.27-.13,.4-.22,.13-.08,.24-.18,.35-.29,.1-.11,.18-.22,.23-.35l1.55,1.8Zm-9.55,1.05c.36,0,.67-.07,.91-.23,.24-.15,.43-.35,.58-.59,.14-.24,.24-.51,.3-.8,.05-.29,.08-.58,.08-.87,0-.76-.51-2.07-1.51-3.93-.18,.41-.36,.83-.54,1.27-.18,.44-.38,.86-.6,1.27,.18,.18,.32,.39,.42,.62,.1,.23,.14,.48,.14,.75s-.05,.52-.15,.76c-.1,.23-.25,.44-.43,.62-.18,.18-.39,.32-.64,.42-.24,.1-.5,.15-.76,.15h-.07c.19,.17,.47,.31,.83,.4,.36,.1,.84,.14,1.44,.14Z"/>
      <path class="cls-3" d="M98.97,39.84c0-.3,0-.72,.04-1.25,.03-.53,.12-1.11,.26-1.75,.14-.63,.37-1.28,.67-1.92,.3-.65,.72-1.24,1.26-1.76,.54-.53,1.22-.96,2.04-1.3,.82-.34,1.83-.51,3.02-.51,.96,0,1.75,.11,2.37,.33,.62,.22,1.12,.51,1.48,.87,.36,.36,.62,.77,.76,1.23,.14,.46,.22,.94,.22,1.43,0,.26-.02,.51-.06,.76-.04,.25-.09,.5-.15,.75h-3.22c0-.21-.02-.44-.06-.68-.04-.23-.1-.45-.2-.65-.1-.2-.23-.36-.4-.49-.17-.13-.39-.19-.66-.19-.37,0-.71,.14-1.01,.43-.3,.28-.55,.65-.75,1.09-.2,.45-.36,.94-.46,1.49-.11,.55-.17,1.08-.17,1.59,0,.29,.03,.57,.08,.85,.06,.27,.14,.52,.24,.72,.11,.21,.24,.38,.39,.51,.15,.13,.32,.19,.52,.19s.4-.02,.64-.07c.24-.05,.47-.15,.72-.31,.24-.16,.48-.39,.71-.68,.23-.3,.45-.69,.64-1.17h4.2c-.14,.92-.41,1.75-.81,2.49-.4,.74-.91,1.37-1.54,1.88-.63,.52-1.37,.91-2.21,1.19-.84,.28-1.77,.42-2.79,.42-1.26,0-2.26-.17-3.02-.5-.75-.33-1.33-.77-1.74-1.3-.4-.53-.67-1.12-.8-1.77-.13-.65-.19-1.29-.19-1.94Z"/>
      <path class="cls-3" d="M126.7,40.12c.21,.25,.41,.49,.62,.74,.21,.25,.42,.49,.62,.74-.16,.47-.42,.93-.78,1.37-.36,.44-.78,.83-1.27,1.18-.48,.35-1,.63-1.57,.84-.56,.21-1.12,.31-1.68,.31-1.79,0-2.89-.71-3.28-2.12-.09,.15-.17,.29-.26,.42-.08,.13-.19,.25-.3,.37-.09,.09-.22,.21-.39,.36-.17,.16-.39,.31-.64,.46-.26,.15-.56,.28-.91,.39-.35,.11-.75,.16-1.21,.16-.73,0-1.36-.13-1.89-.39-.53-.26-.96-.61-1.3-1.06-.34-.44-.58-.97-.75-1.57-.16-.6-.24-1.25-.24-1.95,0-.17,0-.43,.01-.78,.01-.35,.04-.75,.1-1.2,.05-.45,.13-.93,.23-1.45,.09-.52,.23-1.03,.4-1.55,.17-.52,.39-1.01,.64-1.48,.26-.47,.57-.89,.93-1.26,.35-.37,.78-.65,1.26-.87,.48-.21,1.03-.32,1.66-.32,.32,0,.63,.03,.92,.1,.29,.07,.56,.16,.8,.26,.25,.1,.47,.21,.68,.33,.21,.12,.38,.23,.53,.34l.14-1.26,4.98,.23-.85,8.43c-.02,.18-.03,.38-.03,.58,0,.2,.04,.39,.09,.56,.05,.17,.15,.3,.27,.41,.13,.11,.31,.16,.53,.16s.43-.05,.63-.14c.21-.1,.4-.22,.58-.36,.18-.15,.33-.31,.45-.48,.12-.18,.21-.35,.26-.51Zm-7.39-4.86c-.04-.09-.11-.19-.23-.32-.1-.13-.28-.19-.51-.19-.29,0-.57,.12-.83,.35-.26,.24-.5,.56-.69,.98-.2,.42-.36,.92-.47,1.52-.12,.59-.18,1.24-.18,1.95,0,.46,.03,.83,.1,1.09,.06,.26,.14,.46,.24,.59,.1,.13,.2,.21,.31,.23,.11,.03,.2,.04,.29,.04,.26,0,.53-.08,.83-.24,.29-.16,.51-.44,.65-.82l.5-5.17Z"/>
      <path class="cls-3" d="M141.02,37.07c0-.23-.01-.46-.04-.69-.03-.24-.07-.45-.14-.64-.06-.19-.15-.34-.26-.46-.11-.12-.26-.18-.44-.18-.22,0-.41,.12-.59,.35-.17,.24-.33,.52-.46,.85l-.87,8.77h-4.96l.85-8.02c.02-.13,.04-.31,.05-.53,0-.23,0-.44-.05-.65-.04-.21-.12-.39-.24-.55-.12-.16-.29-.23-.52-.23-.29,0-.54,.12-.75,.35-.21,.24-.38,.53-.52,.87l-.9,8.76h-4.99l1.36-13.65,5.06-.23-.17,1.64c.41-.48,.87-.85,1.4-1.1,.53-.25,1.09-.38,1.69-.38,1.61,0,2.66,.65,3.15,1.93,.46-.61,1.03-1.08,1.7-1.42,.67-.33,1.36-.5,2.07-.5,.64,0,1.2,.09,1.66,.27,.46,.18,.84,.44,1.13,.78,.3,.34,.52,.75,.66,1.24,.15,.49,.22,1.04,.22,1.67,0,.44-.03,.9-.09,1.37-.06,.47-.13,.93-.19,1.38-.07,.45-.13,.86-.19,1.25-.06,.39-.09,.73-.09,1.02s.06,.53,.18,.75c.13,.22,.36,.33,.7,.33,.25,0,.45-.03,.63-.09,.17-.06,.32-.15,.43-.27,.12-.12,.22-.26,.31-.42,.09-.16,.18-.35,.27-.57l1.26,1.48c-.19,.53-.44,1.02-.77,1.47-.34,.46-.71,.85-1.15,1.18-.43,.33-.9,.6-1.4,.79-.5,.19-1.01,.29-1.53,.29-.82,0-1.48-.12-1.98-.35-.51-.24-.9-.54-1.18-.92-.29-.38-.48-.8-.57-1.28-.1-.48-.14-.95-.14-1.42,0-.32,.02-.67,.06-1.03,.05-.36,.09-.73,.14-1.11,.05-.38,.09-.75,.14-1.11,.04-.36,.06-.71,.06-1.03Z"/>
      <path class="cls-3" d="M162.49,42.05c-.45,.41-.93,.82-1.45,1.24-.52,.42-1.08,.79-1.7,1.13-.62,.33-1.3,.6-2.03,.81-.73,.21-1.54,.31-2.42,.31-.96,0-1.86-.1-2.68-.3-.82-.2-1.53-.52-2.14-.97-.6-.44-1.07-1.02-1.41-1.72-.34-.7-.52-1.56-.52-2.58,0-.7,.05-1.39,.15-2.09,.11-.7,.27-1.36,.5-2,.23-.63,.53-1.22,.89-1.78,.36-.55,.8-1.03,1.31-1.43,.52-.4,1.11-.72,1.79-.95,.67-.23,1.44-.35,2.3-.35,1,0,1.84,.09,2.51,.28,.68,.19,1.22,.47,1.63,.85,.41,.38,.71,.84,.89,1.4,.18,.56,.27,1.2,.27,1.93,0,.37-.12,.72-.35,1.05-.24,.32-.55,.61-.94,.88-.38,.26-.83,.5-1.33,.72-.5,.21-1.02,.4-1.54,.56-.53,.16-1.05,.29-1.56,.39-.51,.1-.98,.18-1.4,.22,0,.08-.02,.15-.02,.21,0,.07,0,.13,0,.19,0,.38,.06,.7,.18,.97,.12,.27,.28,.49,.48,.66,.2,.17,.43,.3,.7,.38,.27,.08,.55,.12,.85,.12,.63,0,1.21-.06,1.72-.17,.52-.11,.98-.25,1.41-.42,.42-.17,.81-.35,1.16-.55,.35-.21,.67-.4,.97-.58l1.8,1.59Zm-9.15-4.41c.32-.02,.63-.09,.92-.22,.29-.12,.55-.28,.8-.48,.24-.2,.45-.42,.62-.68,.17-.25,.29-.52,.37-.8-.05-.33-.12-.61-.21-.84-.09-.23-.26-.35-.53-.35-.25,0-.48,.1-.68,.3-.21,.2-.39,.46-.56,.78-.17,.32-.31,.68-.43,1.09-.12,.4-.22,.8-.28,1.2Z"/>
      <path class="cls-3" d="M169.61,41.6c-.18,.53-.46,1.02-.84,1.47-.38,.45-.82,.85-1.3,1.18-.49,.34-1.01,.6-1.56,.8-.55,.19-1.09,.29-1.62,.29-.68,0-1.25-.11-1.72-.31-.48-.21-.86-.5-1.17-.88-.31-.38-.53-.83-.67-1.37-.14-.54-.21-1.13-.21-1.77,0-.28,.02-.56,.05-.84l1.43-14.47,5.07-.42c-.12,1.1-.24,2.27-.37,3.52-.13,1.25-.25,2.51-.39,3.78-.13,1.27-.26,2.53-.38,3.78-.13,1.25-.26,2.42-.39,3.52-.03,.16-.05,.29-.05,.4,0,.16,.01,.32,.04,.48,.03,.16,.07,.29,.14,.4,.07,.11,.17,.2,.29,.27,.12,.07,.27,.11,.46,.11,.21,0,.43-.04,.63-.13,.21-.09,.41-.2,.58-.34,.18-.14,.33-.29,.45-.46,.12-.17,.21-.33,.27-.49l1.25,1.48Z"/>
      <path class="cls-3" d="M182.98,41.29c-.55,.53-1.15,1.03-1.79,1.51-.65,.48-1.35,.9-2.1,1.26-.75,.37-1.54,.66-2.38,.88-.84,.22-1.72,.33-2.64,.33-1,0-1.87-.14-2.6-.42-.73-.28-1.34-.63-1.82-1.05-.47-.42-.83-.87-1.06-1.35-.23-.48-.35-.93-.35-1.35,0-.66,.1-1.2,.31-1.64,.21-.43,.47-.79,.77-1.05,.34-.58,.65-1.15,.91-1.7,.26-.55,.49-1.1,.69-1.65,.2-.55,.38-1.1,.55-1.65,.17-.55,.32-1.12,.48-1.7l4.59-1.09c.47,.61,.93,1.28,1.36,2,.43,.73,.82,1.47,1.14,2.25,.33,.77,.59,1.55,.79,2.34,.2,.79,.3,1.54,.3,2.26v.39c0,.2,0,.4-.02,.6,.11-.01,.23-.05,.36-.1,.13-.06,.26-.13,.39-.22,.13-.08,.24-.18,.34-.29,.11-.11,.18-.22,.24-.35l1.54,1.8Zm-9.55,1.05c.37,0,.67-.07,.91-.23,.24-.15,.43-.35,.58-.59,.15-.24,.24-.51,.3-.8,.05-.29,.08-.58,.08-.87,0-.76-.5-2.07-1.51-3.93-.18,.41-.37,.83-.55,1.27-.19,.44-.38,.86-.6,1.27,.18,.18,.32,.39,.42,.62,.1,.23,.14,.48,.14,.75s-.05,.52-.15,.76c-.1,.23-.25,.44-.43,.62-.18,.18-.39,.32-.63,.42-.24,.1-.5,.15-.77,.15h-.07c.2,.17,.47,.31,.83,.4,.36,.1,.84,.14,1.44,.14Z"/>
      <path class="cls-6" d="M30.36,72.7c-1.02,0-1.94,.42-2.61,1.08-.67,.67-1.08,1.59-1.08,2.61,0,2.03,1.66,3.69,3.69,3.69s3.69-1.66,3.69-3.69c0-1.02-.41-1.94-1.08-2.61-.67-.67-1.59-1.08-2.61-1.08Zm0,11.34c-4.22,0-7.65-3.43-7.65-7.65s3.43-7.65,7.65-7.65,7.65,3.43,7.65,7.65-3.43,7.65-7.65,7.65Z"/>
      <path class="cls-3" d="M76.09,45.08c-2.73,2.73-6.33,4.1-9.92,4.1s-7.18-1.37-9.92-4.1c-2.73-2.74-4.1-6.33-4.1-9.92s1.37-7.18,4.1-9.92c2.73-2.74,6.33-4.1,9.92-4.1s7.18,1.37,9.92,4.1l-5.14,5.13c-2.64-2.64-6.93-2.64-9.57,0-2.64,2.64-2.63,6.93,0,9.56,2.64,2.64,6.93,2.64,9.56,0l5.14,5.14Z"/>
      <path class="cls-14" d="M99.99,82.12c-6.56,0-11.9-5.34-11.9-11.9s5.34-11.9,11.9-11.9,11.9,5.34,11.9,11.9-5.34,11.9-11.9,11.9Zm0-16.56c-2.57,0-4.66,2.09-4.66,4.66s2.09,4.66,4.66,4.66,4.66-2.09,4.66-4.66-2.09-4.66-4.66-4.66Z"/>
      <path class="cls-11" d="M72.61,72.79c-7.71,0-13.99-6.27-13.99-13.99s6.27-13.99,13.99-13.99,13.99,6.28,13.99,13.99-6.27,13.99-13.99,13.99Zm0-20.73c-3.72,0-6.74,3.02-6.74,6.74s3.03,6.74,6.74,6.74,6.74-3.03,6.74-6.74-3.02-6.74-6.74-6.74Z"/>
      <path class="cls-1" d="M53.64,94.7c-7.96,0-14.43-6.47-14.43-14.43s6.47-14.43,14.43-14.43,14.43,6.48,14.43,14.43-6.47,14.43-14.43,14.43Zm0-21.62c-3.96,0-7.19,3.23-7.19,7.19s3.22,7.19,7.19,7.19,7.19-3.22,7.19-7.19-3.22-7.19-7.19-7.19Z"/>
      <path class="cls-11" d="M86.66,92.24c-5.92,0-10.73-4.82-10.73-10.73s4.81-10.73,10.73-10.73,10.73,4.81,10.73,10.73-4.81,10.73-10.73,10.73Zm0-16.57c-3.22,0-5.84,2.62-5.84,5.84s2.62,5.84,5.84,5.84,5.84-2.62,5.84-5.84-2.62-5.84-5.84-5.84Z"/>
      <path class="cls-5" d="M84.23,114.74c-5.02,0-9.1-4.08-9.1-9.1s4.08-9.1,9.1-9.1,9.1,4.08,9.1,9.1-4.08,9.1-9.1,9.1Zm0-12.94c-2.12,0-3.84,1.73-3.84,3.84s1.72,3.84,3.84,3.84,3.84-1.72,3.84-3.84-1.73-3.84-3.84-3.84Z"/>
      <path class="cls-14" d="M46.67,71.53c-10.28,0-18.64-8.36-18.64-18.64s8.36-18.64,18.64-18.64,18.64,8.36,18.64,18.64-8.36,18.64-18.64,18.64Zm0-30.03c-6.28,0-11.4,5.11-11.4,11.4s5.11,11.4,11.4,11.4,11.39-5.11,11.39-11.4-5.11-11.4-11.39-11.4Z"/>
      <path class="cls-6" d="M53.55,108.54c-3.25,0-5.89-2.64-5.89-5.89s2.64-5.89,5.89-5.89,5.89,2.64,5.89,5.89-2.64,5.89-5.89,5.89Zm0-7.24c-.75,0-1.35,.61-1.35,1.35s.61,1.35,1.35,1.35,1.35-.6,1.35-1.35-.61-1.35-1.35-1.35Z"/>
      <g>
        <path class="cls-3" d="M42.21,15.42c-.14-.15-.24-.32-.3-.51-.05-.19-.08-.38-.08-.57,0-.36,.08-.69,.23-1,.15-.31,.36-.6,.62-.86,.27-.26,.58-.5,.94-.7,.36-.21,.75-.38,1.16-.53,.42-.14,.85-.26,1.31-.33,.46-.08,.91-.11,1.38-.11,.16,0,.32,0,.48,.02,.16,.01,.32,.02,.48,.04l-1.04,10.21c.19,.03,.42,.08,.7,.16,.28,.08,.58,.18,.91,.28,.32,.11,.66,.22,1.01,.34,.35,.12,.69,.23,1.03,.33,.33,.1,.65,.18,.94,.25,.3,.06,.56,.1,.77,.1,.1,0,.26,0,.47,0,.21,0,.44,0,.68-.02,.24,0,.47-.02,.69-.04,.22-.02,.38-.04,.48-.06,0,.19-.04,.39-.09,.61-.05,.22-.12,.43-.21,.65-.09,.21-.21,.42-.35,.62-.14,.2-.31,.37-.51,.53-.2,.15-.43,.27-.7,.36-.27,.09-.57,.14-.91,.14-.37-.02-.74-.1-1.12-.23-.38-.13-.77-.28-1.18-.46-.4-.18-.82-.37-1.25-.58-.43-.21-.87-.4-1.33-.57-.46-.17-.93-.32-1.42-.43-.49-.11-1-.17-1.53-.17l1.04-10.12c-.33,0-.63,.06-.89,.15-.27,.09-.52,.27-.77,.52,.2,.12,.35,.27,.46,.47,.11,.2,.17,.4,.17,.6,0,.18-.03,.35-.11,.51-.07,.16-.17,.3-.3,.42-.13,.12-.27,.22-.44,.29-.16,.07-.33,.1-.51,.1s-.35-.03-.51-.1c-.16-.07-.31-.18-.43-.32Z"/>
        <path class="cls-3" d="M52.27,14c.44,0,.85,.02,1.22,.07,.38,.05,.7,.15,.99,.3,.28,.15,.51,.38,.69,.68,.18,.3,.29,.7,.33,1.2,.14,.01,.3,0,.49,0,.19-.02,.38-.04,.57-.07,.19-.03,.38-.07,.56-.1,.18-.04,.32-.08,.43-.12l-.25,1.56c-.31,.12-.62,.21-.93,.27-.31,.06-.61,.09-.89,.1-.03,.25-.07,.51-.14,.78-.06,.27-.16,.53-.28,.78-.12,.25-.27,.49-.46,.72-.18,.23-.42,.43-.69,.6-.27,.17-.6,.31-.97,.41-.38,.1-.81,.15-1.3,.15s-.93-.03-1.3-.1c-.37-.07-.68-.2-.93-.4-.25-.19-.44-.47-.57-.82-.13-.35-.19-.81-.19-1.38,0-.37,.02-.74,.07-1.12,.04-.37,.12-.73,.22-1.07,.1-.34,.25-.66,.43-.95,.18-.29,.4-.55,.67-.77,.27-.22,.58-.39,.95-.51,.37-.12,.79-.19,1.28-.19Zm.78,3.21c-.25-.16-.49-.34-.69-.52-.21-.19-.39-.39-.54-.59-.13,.13-.23,.3-.32,.49-.09,.19-.16,.39-.22,.6s-.1,.41-.13,.61c-.03,.2-.04,.37-.04,.51,0,.06,0,.15,0,.27,0,.12,.02,.24,.06,.37,.04,.12,.1,.23,.19,.33,.09,.09,.22,.14,.38,.14,.25,0,.46-.08,.62-.23,.17-.15,.3-.34,.4-.56,.1-.22,.17-.46,.21-.72,.04-.25,.07-.48,.08-.68Z"/>
        <path class="cls-3" d="M63.69,19.18c-.28,.27-.59,.53-.93,.78-.34,.25-.7,.47-1.09,.66-.39,.19-.8,.34-1.23,.45-.43,.11-.89,.17-1.37,.17-.52,0-.97-.07-1.35-.22-.38-.15-.69-.33-.94-.54-.25-.22-.43-.45-.55-.7-.12-.25-.18-.48-.18-.7,0-.34,.06-.62,.16-.85,.11-.22,.24-.41,.4-.55,.18-.3,.33-.59,.47-.88,.14-.29,.25-.57,.36-.86,.1-.28,.2-.57,.28-.85,.09-.29,.17-.58,.25-.88l2.38-.57c.25,.32,.48,.66,.71,1.04,.23,.38,.42,.76,.59,1.16,.17,.4,.31,.81,.41,1.21,.1,.41,.16,.8,.16,1.17v.2c0,.11,0,.21,0,.31,.06,0,.12-.02,.19-.06,.07-.03,.14-.07,.2-.11,.07-.05,.13-.1,.18-.15,.05-.06,.09-.12,.12-.18l.8,.93Zm-4.94,.54c.19,0,.35-.04,.47-.12,.13-.08,.23-.18,.3-.3,.08-.13,.13-.27,.16-.41,.03-.15,.04-.3,.04-.45,0-.4-.26-1.07-.78-2.04-.09,.21-.19,.43-.28,.66-.09,.23-.2,.45-.31,.66,.1,.09,.17,.2,.22,.32,.05,.12,.08,.25,.08,.39s-.03,.27-.08,.39c-.05,.12-.12,.23-.22,.32-.1,.09-.2,.16-.33,.22-.13,.05-.26,.08-.39,.08h-.04c.1,.09,.24,.16,.43,.21,.19,.05,.44,.07,.75,.07Z"/>
      </g>
      <path class="cls-12" d="M101.34,94.57c-4.84,0-8.78-3.94-8.78-8.78s3.94-8.78,8.78-8.78,8.78,3.94,8.78,8.78-3.94,8.78-8.78,8.78Zm0-10.32c-.85,0-1.54,.69-1.54,1.54s.69,1.54,1.54,1.54,1.54-.69,1.54-1.54-.69-1.54-1.54-1.54Z"/>
      <path class="cls-2" d="M71.85,107.47c-5.23,0-9.49-4.26-9.49-9.49s4.26-9.49,9.49-9.49,9.49,4.26,9.49,9.49-4.26,9.49-9.49,9.49Zm0-11.74c-1.24,0-2.25,1.01-2.25,2.25s1.01,2.25,2.25,2.25,2.25-1.01,2.25-2.25-1.01-2.25-2.25-2.25Z"/>
      <path class="cls-11" d="M69.79,126.33c-6.61,0-11.99-5.38-11.99-11.99s5.38-11.99,11.99-11.99,11.99,5.38,11.99,11.99-5.38,11.99-11.99,11.99Zm0-16.74c-2.62,0-4.75,2.13-4.75,4.75s2.13,4.75,4.75,4.75,4.75-2.13,4.75-4.75-2.13-4.75-4.75-4.75Z"/>
      <g id="e8sz0B" class="cls-7">
        <path class="cls-13" d="M80.28,22.79c-1.14-.05-2.21-.24-3.21-.55-1.66-.53-3.16-1.38-4.11-2.34l1.67-1.66c.67,.68,1.88,1.35,3.16,1.75,.54,.17,1.11,.3,1.7,.37-.08-.21-.16-.41-.24-.62l-.08-.19c-.08-.19-.18-.44-.24-.72l-.29-1.36,1.79-.08c.56-.02,1.13-.04,1.65-.12l-1.52-.94,2.32-1.09c.49-.23,.95-.44,1.39-.69-.24-.05-.46-.08-.64-.1l-1.76-.17,.71-1.32c-.15,.02-.32,.04-.48,.07-.51,.08-.89,.17-1.23,.28l-.08,.03c-.14,.05-.34,.13-.59,.15l-3.17,.35,2.53-2.69c.47-.49,.91-.95,1.26-1.53-.22-.04-.45-.06-.69-.09l-1.84-.22,.55-1.41c.4-1.03,.57-1.91,.51-2.58-.54,.39-1.09,1.08-1.64,2.09l-.72,1.31-1.38-1.25c-.17-.15-.32-.3-.49-.44-.23,.66-.28,1.33-.34,1.98l-.05,.49-.46,4.35-1.83-4.09c-.29-.66-.59-1.33-1.01-1.9l-.59,1.4-1.24-1.22c-.14-.14-.3-.27-.47-.4,.09,.48,.22,.94,.35,1.39l.04,.12c.05,.16,.09,.32,.12,.48l.36,1.94-1.49-.48c.31,.5,.7,.98,1.09,1.45l1.2,1.47-1.57,.56c-.32,.11-.64,.23-.95,.35-.13,.05-.26,.1-.39,.15,.44,.39,.93,.76,1.49,1.1,1.08,.67,2.41,1.13,3.47,1.21l-.16,2.35c-1.44-.1-3.15-.68-4.55-1.56-1.14-.71-2.09-1.51-2.89-2.44-.19-.2-.68-.72-.49-1.44,.14-.5,.51-.83,1.11-1,.35-.12,.7-.24,1.05-.37-.51-.7-.96-1.48-1.17-2.36-.07-.28-.24-.94,.19-1.52,.29-.39,.7-.51,.98-.54-.11-.48-.2-.99-.24-1.52-.03-.36-.08-1.03,.25-1.71l.19-.39,.4-.17c.57-.25,1.06-.03,1.22,.05,.52,.21,1.02,.47,1.48,.77,.05-.04,.09-.08,.14-.12,.15-.13,.59-.52,1.22-.4,.51,.09,.85,.43,1.03,.62,.14,.13,.27,.28,.4,.42,.02-.04,.03-.09,.05-.13,.08-.19,.19-.44,.33-.7,.22-.38,.52-.78,1.04-.93l.41-.12,.39,.17c.48,.21,.87,.46,1.2,.72,1-1.41,2.11-2.19,3.36-2.39,.4-.07,1.15,0,1.61,1.17,.4,1,.44,2.18,.1,3.54,.4,.08,.83,.2,1.3,.41l.56,.25,.12,.6c.13,.64-.12,1.25-.4,1.82-.03,.05-.05,.1-.08,.15,.29,0,.59,.02,.92,.08,.2,.04,.52,.09,.81,.34,.46,.38,.51,.94,.49,1.36,.54,.15,1.07,.36,1.56,.62,.47,.22,.76,.55,.86,.98l.1,.42-.2,.38c-.29,.57-.71,.92-1.12,1.23-.43,.31-.86,.57-1.3,.81,.17,.24,.34,.6,.25,1.05-.13,.71-.75,1.03-.98,1.14-.83,.45-1.73,.62-2.61,.7,.02,.04,.03,.08,.05,.12,.12,.32,.25,.63,.37,.96,.32,.66,.15,1.15-.04,1.44-.38,.61-1.09,.59-1.36,.59-.16,0-.33,0-.49-.01Zm-9.1-16.36l.63,.77s.07-.04,.09-.06l-.71-.72h-.01Z"/>
      </g>
      <path class="cls-11" d="M27.82,60.06c-6.51,1.22-12.89-.8-17.48-4.91l4.78-4.86c3.31,2.7,7.68,4.24,11.53,3.53"/>
      <path class="cls-3" d="M158.56,28.88c-.42-.07-4.15-.8-7.51-5.62l2.85-1.99c2.52,3.61,5.13,4.16,5.24,4.18l-.58,3.43Z"/>
      <g>
        <text class="cls-9" transform="translate(14.13 49.61) rotate(-118.66)"><tspan x="0" y="0">C</tspan></text>
        <text class="cls-9" transform="translate(11.38 44.63) rotate(-98.05)"><tspan x="0" y="0">a</tspan></text>
        <text class="cls-9" transform="translate(10.81 39.81) rotate(-84.1)"><tspan x="0" y="0">l</tspan></text>
        <text class="cls-9" transform="translate(10.82 37.59) rotate(-69.88)"><tspan x="0" y="0">a</tspan></text>
        <text class="cls-9" transform="translate(12.3 33.08) rotate(-49.5)"><tspan x="0" y="0">n</tspan></text>
        <text class="cls-9" transform="translate(15.76 28.83) rotate(-27.55)"><tspan x="0" y="0">d</tspan></text>
        <text class="cls-9" transform="translate(20.83 26.32) rotate(-10.03)"><tspan x="0" y="0">r</tspan></text>
        <text class="cls-9" transform="translate(23.79 25.58) rotate(5.79)"><tspan x="0" y="0">e</tspan></text>
        <text class="cls-9" transform="translate(28.77 26.15) rotate(22.18)"><tspan x="0" y="0">t</tspan></text>
        <text class="cls-9" transform="translate(31.79 27.19) rotate(38.13)"><tspan x="0" y="0">a</tspan></text>
      </g>
      <g>
        <g>
          <path class="cls-10" d="M132.29,53.78h-2.35v2.18h2.62v.66h-3.41v-6.06h3.27v.66h-2.49v1.91h2.35v.65Z"/>
          <path class="cls-10" d="M136.61,56.46c-.21,.11-.67,.25-1.25,.25-1.31,0-2.17-.89-2.17-2.22s.92-2.31,2.34-2.31c.47,0,.88,.12,1.1,.22l-.18,.61c-.19-.11-.49-.21-.92-.21-1,0-1.54,.74-1.54,1.64,0,1.01,.65,1.63,1.51,1.63,.45,0,.75-.12,.97-.22l.13,.59Z"/>
          <path class="cls-10" d="M141.42,54.41c0,1.61-1.11,2.31-2.17,2.31-1.18,0-2.09-.86-2.09-2.24,0-1.46,.95-2.31,2.16-2.31s2.09,.91,2.09,2.24Zm-3.45,.04c0,.95,.55,1.67,1.32,1.67s1.32-.71,1.32-1.69c0-.74-.37-1.67-1.3-1.67s-1.34,.86-1.34,1.69Z"/>
          <path class="cls-10" d="M142.42,50.24h.79v6.38h-.79v-6.38Z"/>
          <path class="cls-10" d="M144.98,54.59c.02,1.07,.7,1.51,1.49,1.51,.57,0,.91-.1,1.2-.22l.14,.57c-.28,.13-.76,.27-1.45,.27-1.34,0-2.14-.88-2.14-2.19s.77-2.35,2.04-2.35c1.42,0,1.8,1.25,1.8,2.05,0,.16-.02,.29-.03,.37h-3.06Zm2.32-.57c0-.5-.21-1.29-1.1-1.29-.8,0-1.15,.74-1.21,1.29h2.31Z"/>
          <path class="cls-10" d="M148.37,56.98l2.51-6.52h.61l-2.52,6.52h-.6Z"/>
          <path class="cls-10" d="M155.28,53.78h-2.35v2.18h2.62v.66h-3.41v-6.06h3.27v.66h-2.49v1.91h2.35v.65Z"/>
          <path class="cls-10" d="M156.43,55.81c.23,.15,.65,.31,1.04,.31,.58,0,.84-.29,.84-.65,0-.38-.22-.58-.81-.8-.78-.28-1.15-.71-1.15-1.23,0-.7,.57-1.28,1.5-1.28,.44,0,.83,.13,1.07,.27l-.2,.58c-.17-.11-.49-.25-.89-.25-.47,0-.73,.27-.73,.59,0,.36,.26,.52,.83,.74,.75,.29,1.14,.67,1.14,1.31,0,.76-.59,1.3-1.63,1.3-.48,0-.92-.12-1.22-.3l.2-.6Z"/>
          <path class="cls-10" d="M163.2,56.46c-.21,.11-.67,.25-1.25,.25-1.31,0-2.17-.89-2.17-2.22s.92-2.31,2.34-2.31c.47,0,.88,.12,1.1,.22l-.18,.61c-.19-.11-.49-.21-.92-.21-1,0-1.54,.74-1.54,1.64,0,1.01,.65,1.63,1.51,1.63,.45,0,.75-.12,.97-.22l.13,.59Z"/>
          <path class="cls-10" d="M168.01,54.41c0,1.61-1.11,2.31-2.17,2.31-1.18,0-2.09-.86-2.09-2.24,0-1.46,.95-2.31,2.16-2.31s2.09,.91,2.09,2.24Zm-3.45,.04c0,.95,.55,1.67,1.32,1.67s1.32-.71,1.32-1.69c0-.74-.37-1.67-1.3-1.67s-1.34,.86-1.34,1.69Z"/>
          <path class="cls-10" d="M169,50.24h.79v6.38h-.79v-6.38Z"/>
          <path class="cls-10" d="M173.53,56.62l-.06-.55h-.03c-.24,.34-.71,.65-1.33,.65-.88,0-1.33-.62-1.33-1.25,0-1.05,.93-1.63,2.62-1.62v-.09c0-.36-.1-1.01-.99-1.01-.4,0-.83,.13-1.13,.32l-.18-.52c.36-.23,.88-.39,1.43-.39,1.33,0,1.65,.91,1.65,1.78v1.63c0,.38,.02,.75,.07,1.04h-.72Zm-.12-2.22c-.86-.02-1.84,.13-1.84,.98,0,.51,.34,.75,.75,.75,.57,0,.93-.36,1.05-.73,.03-.08,.04-.17,.04-.25v-.75Z"/>
        </g>
        <path class="cls-4" d="M169.72,48.96s.6,.9,2.27,1.7"/>
      </g>
    </g>
  </g>
</svg>